<svg width="32" height="32" viewBox="0 0 32 32" fill="none" xmlns="http://www.w3.org/2000/svg">
<g clip-path="url(#clip0_520_336)">
<path d="M12.0013 15.9997C10.9465 15.9997 9.91533 16.3125 9.03826 16.8985C8.1612 17.4845 7.47761 18.3175 7.07395 19.292C6.67028 20.2666 6.56466 21.3389 6.77045 22.3735C6.97624 23.4081 7.48419 24.3584 8.23007 25.1042C8.97595 25.8501 9.92626 26.3581 10.9608 26.5639C11.9954 26.7697 13.0677 26.664 14.0423 26.2604C15.0168 25.8567 15.8498 25.1731 16.4358 24.296C17.0218 23.419 17.3346 22.3878 17.3346 21.333V5.33301C17.3346 7.10112 18.037 8.79681 19.2873 10.0471C20.5375 11.2973 22.2332 11.9997 24.0013 11.9997" stroke="#D5C9BE" stroke-width="2" stroke-linecap="round" stroke-linejoin="round"/>
</g>
<defs>
<clipPath id="clip0_520_336">
<rect width="32" height="32" fill="white"/>
</clipPath>
</defs>
</svg>
